<svg width="596" height="260" viewBox="0 0 596 260" fill="none" xmlns="http://www.w3.org/2000/svg">
<g clip-path="url(#clip0_3642_4401)">
<path d="M480.47 11.5469L523.439 49.1756M480.47 11.5469L437.501 49.1756M480.47 11.5469V86.8043M523.439 49.1756L480.47 86.8043M523.439 49.1756H437.501M480.47 86.8043L437.501 49.1756" stroke="#25374B" stroke-width="2" stroke-linejoin="round"/>
<circle cx="480.47" cy="11.5469" r="7.5" fill="#7547D8"/>
<circle cx="480.47" cy="86.8047" r="7.5" fill="#7547D8"/>
<circle cx="437.501" cy="49.1758" r="7.5" transform="rotate(-90 437.501 49.1758)" fill="#7547D8"/>
<circle cx="523.439" cy="49.1758" r="7.5" transform="rotate(-90 523.439 49.1758)" fill="#7547D8"/>
<circle cx="90.501" cy="64.5469" r="7.5" fill="#1ABC9C"/>
<path d="M74.297 119.599C74.233 119.535 74.201 119.487 74.201 119.455C74.201 119.338 74.2863 119.039 74.457 118.559C74.6383 118.015 74.8516 117.62 75.097 117.375C75.3423 117.108 75.625 116.975 75.945 116.975C76.617 116.975 77.0756 117.258 77.321 117.823C77.3423 117.887 77.3636 117.946 77.385 117.999V118.063L77.593 117.855C78.1796 117.268 78.857 116.975 79.625 116.975C80.169 116.975 80.601 117.124 80.921 117.423C81.2516 117.711 81.417 118.116 81.417 118.639C81.417 118.938 81.353 119.332 81.225 119.823C81.0543 120.452 80.8143 121.199 80.505 122.063C80.3236 122.554 80.2223 122.89 80.201 123.071C80.1796 123.199 80.169 123.284 80.169 123.327C80.169 123.519 80.2596 123.615 80.441 123.615C80.633 123.615 80.8303 123.53 81.033 123.359C81.3103 123.06 81.5503 122.564 81.753 121.871C81.785 121.743 81.8116 121.668 81.833 121.647C81.865 121.615 81.9396 121.599 82.057 121.599H82.153C82.3343 121.599 82.4356 121.61 82.457 121.631C82.4996 121.674 82.521 121.716 82.521 121.759C82.521 121.802 82.505 121.871 82.473 121.967C82.1103 123.183 81.529 123.919 80.729 124.175C80.6436 124.196 80.5156 124.207 80.345 124.207C79.9396 124.207 79.6196 124.09 79.385 123.855C79.1503 123.62 79.033 123.3 79.033 122.895C79.033 122.671 79.1183 122.335 79.289 121.887C79.769 120.543 80.0516 119.583 80.137 119.007C80.1583 118.911 80.169 118.73 80.169 118.463C80.169 118.271 80.1636 118.148 80.153 118.095C80.0356 117.743 79.8276 117.567 79.529 117.567C79.4436 117.567 79.3743 117.572 79.321 117.583C78.6063 117.679 77.9823 118.186 77.449 119.103C77.3316 119.306 77.2463 119.492 77.193 119.663C77.1396 119.834 76.9743 120.49 76.697 121.631C76.3556 122.986 76.169 123.706 76.137 123.791C75.9876 124.079 75.753 124.223 75.433 124.223C75.113 124.223 74.9423 124.068 74.921 123.759C74.921 123.706 75.129 122.836 75.545 121.151C75.9716 119.423 76.185 118.543 76.185 118.511C76.217 118.362 76.233 118.223 76.233 118.095C76.233 117.743 76.1156 117.567 75.881 117.567H75.833C75.673 117.599 75.5183 117.764 75.369 118.063C75.2516 118.319 75.1076 118.783 74.937 119.455C74.9263 119.476 74.9156 119.498 74.905 119.519C74.8836 119.572 74.8036 119.599 74.665 119.599C74.6223 119.599 74.5903 119.599 74.569 119.599H74.297ZM86.8814 118.495C86.8814 118.356 86.956 118.25 87.1054 118.175H97.2974C97.4574 118.25 97.5374 118.356 97.5374 118.495C97.5374 118.612 97.4627 118.714 97.3134 118.799L92.2254 118.815H87.1374C86.9667 118.762 86.8814 118.655 86.8814 118.495ZM86.8814 121.599C86.8814 121.439 86.9667 121.332 87.1374 121.279H97.3134C97.324 121.29 97.3454 121.311 97.3774 121.343C97.42 121.364 97.4467 121.386 97.4574 121.407C97.4787 121.418 97.4947 121.444 97.5054 121.487C97.5267 121.519 97.5374 121.556 97.5374 121.599C97.5374 121.738 97.4574 121.844 97.2974 121.919H87.1054C86.956 121.844 86.8814 121.738 86.8814 121.599ZM107.094 124.047C106.913 124.015 106.065 123.999 104.55 123.999C103.057 123.999 102.22 124.015 102.038 124.047H101.846V123.311H102.262C102.881 123.311 103.281 123.295 103.462 123.263C103.548 123.252 103.676 123.188 103.846 123.071V114.799C103.825 114.799 103.782 114.815 103.718 114.847C103.228 115.039 102.678 115.14 102.07 115.151H101.766V114.415H102.07C102.966 114.383 103.713 114.18 104.31 113.807C104.502 113.7 104.668 113.578 104.806 113.439C104.828 113.407 104.892 113.391 104.998 113.391C105.105 113.391 105.196 113.423 105.27 113.487V118.271L105.286 123.071C105.446 123.231 105.793 123.311 106.326 123.311H106.854H107.27V124.047H107.094Z" fill="#25374B"/>
<path d="M463.766 116.689C463.702 116.625 463.67 116.577 463.67 116.545C463.67 116.427 463.755 116.129 463.926 115.649C464.107 115.105 464.32 114.71 464.566 114.465C464.811 114.198 465.094 114.065 465.414 114.065C466.086 114.065 466.544 114.347 466.79 114.913C466.811 114.977 466.832 115.035 466.854 115.089V115.153L467.062 114.945C467.648 114.358 468.326 114.065 469.094 114.065C469.638 114.065 470.07 114.214 470.39 114.513C470.72 114.801 470.886 115.206 470.886 115.729C470.886 116.027 470.822 116.422 470.694 116.913C470.523 117.542 470.283 118.289 469.974 119.153C469.792 119.643 469.691 119.979 469.67 120.161C469.648 120.289 469.638 120.374 469.638 120.417C469.638 120.609 469.728 120.705 469.91 120.705C470.102 120.705 470.299 120.619 470.502 120.449C470.779 120.15 471.019 119.654 471.222 118.961C471.254 118.833 471.28 118.758 471.302 118.737C471.334 118.705 471.408 118.689 471.526 118.689H471.622C471.803 118.689 471.904 118.699 471.926 118.721C471.968 118.763 471.99 118.806 471.99 118.849C471.99 118.891 471.974 118.961 471.942 119.057C471.579 120.273 470.998 121.009 470.198 121.265C470.112 121.286 469.984 121.297 469.814 121.297C469.408 121.297 469.088 121.179 468.854 120.945C468.619 120.71 468.502 120.39 468.502 119.985C468.502 119.761 468.587 119.425 468.758 118.977C469.238 117.633 469.52 116.673 469.606 116.097C469.627 116.001 469.638 115.819 469.638 115.553C469.638 115.361 469.632 115.238 469.622 115.185C469.504 114.833 469.296 114.657 468.998 114.657C468.912 114.657 468.843 114.662 468.79 114.673C468.075 114.769 467.451 115.275 466.918 116.193C466.8 116.395 466.715 116.582 466.662 116.753C466.608 116.923 466.443 117.579 466.166 118.721C465.824 120.075 465.638 120.795 465.606 120.881C465.456 121.169 465.222 121.313 464.902 121.313C464.582 121.313 464.411 121.158 464.39 120.849C464.39 120.795 464.598 119.926 465.014 118.241C465.44 116.513 465.654 115.633 465.654 115.601C465.686 115.451 465.702 115.313 465.702 115.185C465.702 114.833 465.584 114.657 465.35 114.657H465.302C465.142 114.689 464.987 114.854 464.838 115.153C464.72 115.409 464.576 115.873 464.406 116.545C464.395 116.566 464.384 116.587 464.374 116.609C464.352 116.662 464.272 116.689 464.134 116.689C464.091 116.689 464.059 116.689 464.038 116.689H463.766ZM476.35 115.585C476.35 115.446 476.425 115.339 476.574 115.265H486.766C486.926 115.339 487.006 115.446 487.006 115.585C487.006 115.702 486.931 115.803 486.782 115.889L481.694 115.905H476.606C476.435 115.851 476.35 115.745 476.35 115.585ZM476.35 118.689C476.35 118.529 476.435 118.422 476.606 118.369H486.782C486.793 118.379 486.814 118.401 486.846 118.433C486.889 118.454 486.915 118.475 486.926 118.497C486.947 118.507 486.963 118.534 486.974 118.577C486.995 118.609 487.006 118.646 487.006 118.689C487.006 118.827 486.926 118.934 486.766 119.009H476.574C476.425 118.934 476.35 118.827 476.35 118.689ZM497.299 121.137C497.15 121.105 496.462 121.089 495.235 121.089C493.955 121.089 493.241 121.105 493.091 121.137H492.947V120.401H493.443C493.902 120.39 494.185 120.363 494.291 120.321C494.377 120.299 494.441 120.246 494.483 120.161C494.494 120.139 494.499 119.851 494.499 119.297V118.497H490.355V117.761L492.771 114.065C494.403 111.59 495.23 110.347 495.251 110.337C495.273 110.315 495.385 110.305 495.587 110.305H495.875L495.971 110.401V117.761H497.443V118.497H495.971V119.313C495.971 119.75 495.971 120.006 495.971 120.081C495.982 120.155 496.014 120.219 496.067 120.273C496.153 120.347 496.457 120.39 496.979 120.401H497.443V121.137H497.299ZM494.595 117.761V112.417L491.091 117.745L492.835 117.761H494.595Z" fill="#25374B"/>
<path d="M90.8424 142.547L131.184 173.098M90.8424 142.547L50.501 173.098M90.8424 142.547L115.775 219.281M90.8424 142.547L65.91 219.281M131.184 173.098L115.775 219.281M131.184 173.098H50.501M131.184 173.098L65.91 219.281M115.775 219.281H65.91M115.775 219.281L50.501 173.098M65.91 219.281L50.501 173.098" stroke="#25374B" stroke-width="2" stroke-linejoin="round"/>
<circle cx="90.8423" cy="142.547" r="7.5" fill="#00856B"/>
<circle cx="66.0757" cy="219.281" r="7.5" fill="#00856B"/>
<circle cx="115.654" cy="219.281" r="7.5" fill="#00856B"/>
<circle cx="131.184" cy="173.414" r="7.5" fill="#00856B"/>
<circle cx="50.501" cy="173.414" r="7.5" fill="#00856B"/>
<path d="M74.1383 248.427C74.0743 248.363 74.0423 248.315 74.0423 248.283C74.0423 248.166 74.1276 247.867 74.2983 247.387C74.4796 246.843 74.693 246.448 74.9383 246.203C75.1836 245.936 75.4663 245.803 75.7863 245.803C76.4583 245.803 76.917 246.086 77.1623 246.651C77.1836 246.715 77.205 246.774 77.2263 246.827V246.891L77.4343 246.683C78.021 246.096 78.6983 245.803 79.4663 245.803C80.0103 245.803 80.4423 245.952 80.7623 246.251C81.093 246.539 81.2583 246.944 81.2583 247.467C81.2583 247.766 81.1943 248.16 81.0663 248.651C80.8956 249.28 80.6556 250.027 80.3463 250.891C80.165 251.382 80.0636 251.718 80.0423 251.899C80.021 252.027 80.0103 252.112 80.0103 252.155C80.0103 252.347 80.101 252.443 80.2823 252.443C80.4743 252.443 80.6716 252.358 80.8743 252.187C81.1516 251.888 81.3916 251.392 81.5943 250.699C81.6263 250.571 81.653 250.496 81.6743 250.475C81.7063 250.443 81.781 250.427 81.8983 250.427H81.9943C82.1756 250.427 82.277 250.438 82.2983 250.459C82.341 250.502 82.3623 250.544 82.3623 250.587C82.3623 250.63 82.3463 250.699 82.3143 250.795C81.9516 252.011 81.3703 252.747 80.5703 253.003C80.485 253.024 80.357 253.035 80.1863 253.035C79.781 253.035 79.461 252.918 79.2263 252.683C78.9916 252.448 78.8743 252.128 78.8743 251.723C78.8743 251.499 78.9596 251.163 79.1303 250.715C79.6103 249.371 79.893 248.411 79.9783 247.835C79.9996 247.739 80.0103 247.558 80.0103 247.291C80.0103 247.099 80.005 246.976 79.9943 246.923C79.877 246.571 79.669 246.395 79.3703 246.395C79.285 246.395 79.2156 246.4 79.1623 246.411C78.4476 246.507 77.8236 247.014 77.2903 247.931C77.173 248.134 77.0876 248.32 77.0343 248.491C76.981 248.662 76.8156 249.318 76.5383 250.459C76.197 251.814 76.0103 252.534 75.9783 252.619C75.829 252.907 75.5943 253.051 75.2743 253.051C74.9543 253.051 74.7836 252.896 74.7623 252.587C74.7623 252.534 74.9703 251.664 75.3863 249.979C75.813 248.251 76.0263 247.371 76.0263 247.339C76.0583 247.19 76.0743 247.051 76.0743 246.923C76.0743 246.571 75.957 246.395 75.7223 246.395H75.6743C75.5143 246.427 75.3596 246.592 75.2103 246.891C75.093 247.147 74.949 247.611 74.7783 248.283C74.7676 248.304 74.757 248.326 74.7463 248.347C74.725 248.4 74.645 248.427 74.5063 248.427C74.4636 248.427 74.4316 248.427 74.4103 248.427H74.1383ZM86.7227 247.323C86.7227 247.184 86.7973 247.078 86.9467 247.003H97.1387C97.2987 247.078 97.3787 247.184 97.3787 247.323C97.3787 247.44 97.304 247.542 97.1547 247.627L92.0667 247.643H86.9787C86.808 247.59 86.7227 247.483 86.7227 247.323ZM86.7227 250.427C86.7227 250.267 86.808 250.16 86.9787 250.107H97.1547C97.1653 250.118 97.1867 250.139 97.2187 250.171C97.2613 250.192 97.288 250.214 97.2987 250.235C97.32 250.246 97.336 250.272 97.3467 250.315C97.368 250.347 97.3787 250.384 97.3787 250.427C97.3787 250.566 97.2987 250.672 97.1387 250.747H86.9467C86.7973 250.672 86.7227 250.566 86.7227 250.427ZM101.992 249.451C102.248 249.451 102.461 249.542 102.632 249.723C102.813 249.894 102.904 250.112 102.904 250.379C102.904 250.624 102.813 250.832 102.632 251.003C102.45 251.174 102.248 251.259 102.024 251.259H101.912L101.96 251.339C102.12 251.68 102.365 251.963 102.696 252.187C103.026 252.411 103.416 252.523 103.864 252.523C104.621 252.523 105.165 252.203 105.496 251.563C105.698 251.168 105.8 250.486 105.8 249.515C105.8 248.416 105.656 247.675 105.368 247.291C105.09 246.939 104.749 246.763 104.344 246.763C103.512 246.763 102.882 247.126 102.456 247.851C102.413 247.926 102.37 247.974 102.328 247.995C102.296 248.006 102.221 248.011 102.104 248.011C101.922 248.011 101.821 247.979 101.8 247.915C101.778 247.872 101.768 246.939 101.768 245.115C101.768 244.795 101.762 244.416 101.752 243.979C101.752 243.542 101.752 243.264 101.752 243.147C101.752 242.55 101.784 242.251 101.848 242.251C101.869 242.23 101.89 242.219 101.912 242.219L102.2 242.315C102.893 242.592 103.602 242.731 104.328 242.731C105.085 242.731 105.81 242.582 106.504 242.283C106.589 242.24 106.658 242.219 106.712 242.219C106.797 242.219 106.84 242.315 106.84 242.507V242.715C105.976 243.75 104.882 244.267 103.56 244.267C103.229 244.267 102.93 244.235 102.664 244.171L102.504 244.139V246.891C103.112 246.4 103.736 246.155 104.376 246.155C104.578 246.155 104.797 246.182 105.032 246.235C105.746 246.416 106.328 246.822 106.776 247.451C107.234 248.08 107.464 248.816 107.464 249.659C107.464 250.63 107.122 251.467 106.44 252.171C105.768 252.875 104.936 253.227 103.944 253.227C103.272 253.227 102.701 253.04 102.232 252.667C102.029 252.539 101.853 252.363 101.704 252.139C101.384 251.755 101.181 251.28 101.096 250.715C101.096 250.683 101.09 250.635 101.08 250.571C101.08 250.496 101.08 250.443 101.08 250.411C101.08 250.112 101.165 249.878 101.336 249.707C101.506 249.536 101.725 249.451 101.992 249.451Z" fill="#25374B"/>
<path d="M200.001 28.5469L200.001 94.3066" stroke="#25374B" stroke-width="2"/>
<circle cx="200.001" cy="28.5469" r="7.5" fill="#FD7B33"/>
<circle cx="200.001" cy="91.8066" r="7.5" fill="#FD7B33"/>
<path d="M183.297 116.882C183.233 116.818 183.201 116.77 183.201 116.738C183.201 116.621 183.286 116.322 183.457 115.842C183.638 115.298 183.852 114.903 184.097 114.658C184.342 114.391 184.625 114.258 184.945 114.258C185.617 114.258 186.076 114.541 186.321 115.106C186.342 115.17 186.364 115.229 186.385 115.282V115.346L186.593 115.138C187.18 114.551 187.857 114.258 188.625 114.258C189.169 114.258 189.601 114.407 189.921 114.706C190.252 114.994 190.417 115.399 190.417 115.922C190.417 116.221 190.353 116.615 190.225 117.106C190.054 117.735 189.814 118.482 189.505 119.346C189.324 119.837 189.222 120.173 189.201 120.354C189.18 120.482 189.169 120.567 189.169 120.61C189.169 120.802 189.26 120.898 189.441 120.898C189.633 120.898 189.83 120.813 190.033 120.642C190.31 120.343 190.55 119.847 190.753 119.154C190.785 119.026 190.812 118.951 190.833 118.93C190.865 118.898 190.94 118.882 191.057 118.882H191.153C191.334 118.882 191.436 118.893 191.457 118.914C191.5 118.957 191.521 118.999 191.521 119.042C191.521 119.085 191.505 119.154 191.473 119.25C191.11 120.466 190.529 121.202 189.729 121.458C189.644 121.479 189.516 121.49 189.345 121.49C188.94 121.49 188.62 121.373 188.385 121.138C188.15 120.903 188.033 120.583 188.033 120.178C188.033 119.954 188.118 119.618 188.289 119.17C188.769 117.826 189.052 116.866 189.137 116.29C189.158 116.194 189.169 116.013 189.169 115.746C189.169 115.554 189.164 115.431 189.153 115.378C189.036 115.026 188.828 114.85 188.529 114.85C188.444 114.85 188.374 114.855 188.321 114.866C187.606 114.962 186.982 115.469 186.449 116.386C186.332 116.589 186.246 116.775 186.193 116.946C186.14 117.117 185.974 117.773 185.697 118.914C185.356 120.269 185.169 120.989 185.137 121.074C184.988 121.362 184.753 121.506 184.433 121.506C184.113 121.506 183.942 121.351 183.921 121.042C183.921 120.989 184.129 120.119 184.545 118.434C184.972 116.706 185.185 115.826 185.185 115.794C185.217 115.645 185.233 115.506 185.233 115.378C185.233 115.026 185.116 114.85 184.881 114.85H184.833C184.673 114.882 184.518 115.047 184.369 115.346C184.252 115.602 184.108 116.066 183.937 116.738C183.926 116.759 183.916 116.781 183.905 116.802C183.884 116.855 183.804 116.882 183.665 116.882C183.622 116.882 183.59 116.882 183.569 116.882H183.297ZM195.881 115.778C195.881 115.639 195.956 115.533 196.105 115.458H206.297C206.457 115.533 206.537 115.639 206.537 115.778C206.537 115.895 206.463 115.997 206.313 116.082L201.225 116.098H196.137C195.967 116.045 195.881 115.938 195.881 115.778ZM195.881 118.882C195.881 118.722 195.967 118.615 196.137 118.562H206.313C206.324 118.573 206.345 118.594 206.377 118.626C206.42 118.647 206.447 118.669 206.457 118.69C206.479 118.701 206.495 118.727 206.505 118.77C206.527 118.802 206.537 118.839 206.537 118.882C206.537 119.021 206.457 119.127 206.297 119.202H196.105C195.956 119.127 195.881 119.021 195.881 118.882ZM211.198 114.466C210.9 114.466 210.665 114.37 210.494 114.178C210.324 113.986 210.238 113.751 210.238 113.474C210.238 112.706 210.526 112.05 211.102 111.506C211.689 110.951 212.388 110.674 213.198 110.674C214.116 110.674 214.873 110.925 215.47 111.426C216.078 111.917 216.452 112.562 216.59 113.362C216.612 113.554 216.622 113.73 216.622 113.89C216.622 114.509 216.436 115.09 216.062 115.634C215.764 116.082 215.161 116.695 214.254 117.474C213.87 117.805 213.337 118.295 212.654 118.946L211.71 119.842L212.926 119.858C214.601 119.858 215.492 119.831 215.598 119.778C215.641 119.767 215.694 119.655 215.758 119.442C215.801 119.325 215.876 118.962 215.982 118.354V118.306H216.622V118.354L216.174 121.282V121.33H210.238V121.026C210.238 120.813 210.249 120.69 210.27 120.658C210.281 120.647 210.729 120.141 211.614 119.138C212.777 117.847 213.524 116.994 213.854 116.578C214.569 115.607 214.926 114.717 214.926 113.906C214.926 113.202 214.74 112.615 214.366 112.146C214.004 111.666 213.492 111.426 212.83 111.426C212.212 111.426 211.71 111.703 211.326 112.258C211.305 112.301 211.273 112.359 211.23 112.434C211.198 112.487 211.182 112.519 211.182 112.53C211.182 112.541 211.209 112.546 211.262 112.546C211.529 112.546 211.742 112.642 211.902 112.834C212.073 113.026 212.158 113.25 212.158 113.506C212.158 113.773 212.068 114.002 211.886 114.194C211.716 114.375 211.486 114.466 211.198 114.466Z" fill="#25374B"/>
<path d="M200.207 139.547L237.913 161.316M200.207 139.547L162.501 161.316M200.207 139.547V226.625M200.207 139.547L162.501 204.855M200.207 139.547L237.913 204.855M237.913 161.316V204.855M237.913 161.316H162.501M237.913 161.316L162.501 204.855M237.913 161.316L200.207 226.625M237.913 204.855L200.207 226.625M237.913 204.855H162.501M237.913 204.855L162.501 161.316M200.207 226.625L162.501 204.855M200.207 226.625L162.501 161.316M162.501 204.855V161.316" stroke="#25374B" stroke-width="2" stroke-linejoin="round"/>
<circle cx="162.501" cy="161.461" r="7.5" fill="#0875BE"/>
<circle cx="237.913" cy="161.461" r="7.5" fill="#0875BE"/>
<circle cx="200.207" cy="139.547" r="7.5" fill="#0875BE"/>
<circle cx="200.207" cy="226.625" r="7.5" fill="#0875BE"/>
<circle cx="162.501" cy="204.686" r="7.5" fill="#0875BE"/>
<circle cx="237.913" cy="204.686" r="7.5" fill="#0875BE"/>
<path d="M183.503 250.599C183.439 250.535 183.407 250.487 183.407 250.455C183.407 250.338 183.492 250.039 183.663 249.559C183.844 249.015 184.057 248.62 184.303 248.375C184.548 248.108 184.831 247.975 185.151 247.975C185.823 247.975 186.281 248.258 186.527 248.823C186.548 248.887 186.569 248.946 186.591 248.999V249.063L186.799 248.855C187.385 248.268 188.063 247.975 188.831 247.975C189.375 247.975 189.807 248.124 190.127 248.423C190.457 248.711 190.623 249.116 190.623 249.639C190.623 249.938 190.559 250.332 190.431 250.823C190.26 251.452 190.02 252.199 189.711 253.063C189.529 253.554 189.428 253.89 189.407 254.071C189.385 254.199 189.375 254.284 189.375 254.327C189.375 254.519 189.465 254.615 189.647 254.615C189.839 254.615 190.036 254.53 190.239 254.359C190.516 254.06 190.756 253.564 190.959 252.871C190.991 252.743 191.017 252.668 191.039 252.647C191.071 252.615 191.145 252.599 191.263 252.599H191.359C191.54 252.599 191.641 252.61 191.663 252.631C191.705 252.674 191.727 252.716 191.727 252.759C191.727 252.802 191.711 252.871 191.679 252.967C191.316 254.183 190.735 254.919 189.935 255.175C189.849 255.196 189.721 255.207 189.551 255.207C189.145 255.207 188.825 255.09 188.591 254.855C188.356 254.62 188.239 254.3 188.239 253.895C188.239 253.671 188.324 253.335 188.495 252.887C188.975 251.543 189.257 250.583 189.343 250.007C189.364 249.911 189.375 249.73 189.375 249.463C189.375 249.271 189.369 249.148 189.359 249.095C189.241 248.743 189.033 248.567 188.735 248.567C188.649 248.567 188.58 248.572 188.527 248.583C187.812 248.679 187.188 249.186 186.655 250.103C186.537 250.306 186.452 250.492 186.399 250.663C186.345 250.834 186.18 251.49 185.903 252.631C185.561 253.986 185.375 254.706 185.343 254.791C185.193 255.079 184.959 255.223 184.639 255.223C184.319 255.223 184.148 255.068 184.127 254.759C184.127 254.706 184.335 253.836 184.751 252.151C185.177 250.423 185.391 249.543 185.391 249.511C185.423 249.362 185.439 249.223 185.439 249.095C185.439 248.743 185.321 248.567 185.087 248.567H185.039C184.879 248.599 184.724 248.764 184.575 249.063C184.457 249.319 184.313 249.783 184.143 250.455C184.132 250.476 184.121 250.498 184.111 250.519C184.089 250.572 184.009 250.599 183.871 250.599C183.828 250.599 183.796 250.599 183.775 250.599H183.503ZM196.087 249.495C196.087 249.356 196.162 249.25 196.311 249.175H206.503C206.663 249.25 206.743 249.356 206.743 249.495C206.743 249.612 206.668 249.714 206.519 249.799L201.431 249.815H196.343C196.172 249.762 196.087 249.655 196.087 249.495ZM196.087 252.599C196.087 252.439 196.172 252.332 196.343 252.279H206.519C206.53 252.29 206.551 252.311 206.583 252.343C206.626 252.364 206.652 252.386 206.663 252.407C206.684 252.418 206.7 252.444 206.711 252.487C206.732 252.519 206.743 252.556 206.743 252.599C206.743 252.738 206.663 252.844 206.503 252.919H196.311C196.162 252.844 196.087 252.738 196.087 252.599ZM215.612 245.431C215.377 245.196 215.047 245.063 214.62 245.031C213.873 245.031 213.249 245.351 212.748 245.991C212.247 246.684 211.996 247.762 211.996 249.223L212.012 249.287L212.14 249.079C212.577 248.439 213.169 248.119 213.916 248.119C214.407 248.119 214.839 248.22 215.212 248.423C215.468 248.572 215.724 248.791 215.98 249.079C216.236 249.356 216.444 249.655 216.604 249.975C216.828 250.498 216.94 251.068 216.94 251.687V251.975C216.94 252.22 216.913 252.45 216.86 252.663C216.732 253.292 216.401 253.884 215.868 254.439C215.409 254.919 214.897 255.218 214.332 255.335C214.161 255.378 213.948 255.399 213.692 255.399C213.489 255.399 213.308 255.383 213.148 255.351C212.359 255.202 211.729 254.775 211.26 254.071C210.631 253.079 210.316 251.735 210.316 250.039C210.316 248.887 210.519 247.879 210.924 247.015C211.329 246.151 211.895 245.479 212.62 244.999C213.196 244.594 213.82 244.391 214.492 244.391C215.111 244.391 215.607 244.556 215.98 244.887C216.364 245.218 216.556 245.671 216.556 246.247C216.556 246.514 216.476 246.727 216.316 246.887C216.167 247.047 215.964 247.127 215.708 247.127C215.452 247.127 215.244 247.052 215.084 246.903C214.935 246.754 214.86 246.546 214.86 246.279C214.86 245.799 215.111 245.516 215.612 245.431ZM214.908 249.271C214.609 248.887 214.225 248.695 213.756 248.695C213.361 248.695 213.041 248.818 212.796 249.063C212.273 249.586 212.012 250.428 212.012 251.591C212.012 252.54 212.076 253.196 212.204 253.559C212.311 253.879 212.492 254.151 212.748 254.375C213.004 254.599 213.308 254.711 213.66 254.711C214.204 254.711 214.62 254.508 214.908 254.103C215.068 253.879 215.169 253.612 215.212 253.303C215.255 252.994 215.276 252.546 215.276 251.959V251.703V251.447C215.276 250.839 215.255 250.38 215.212 250.071C215.169 249.762 215.068 249.495 214.908 249.271Z" fill="#25374B"/>
<path d="M328.696 28.5469L365.625 92.5096H291.767L328.696 28.5469Z" stroke="#25374B" stroke-width="2" stroke-linejoin="round"/>
<circle cx="291.501" cy="92.1328" r="7.5" fill="#1CB7C8"/>
<circle cx="328.696" cy="28.5469" r="7.5" fill="#1CB7C8"/>
<circle cx="365.364" cy="92.1328" r="7.5" fill="#1CB7C8"/>
<path d="M311.728 116.882C311.664 116.818 311.632 116.77 311.632 116.738C311.632 116.621 311.717 116.322 311.888 115.842C312.069 115.298 312.283 114.903 312.528 114.658C312.773 114.391 313.056 114.258 313.376 114.258C314.048 114.258 314.507 114.541 314.752 115.106C314.773 115.17 314.795 115.229 314.816 115.282V115.346L315.024 115.138C315.611 114.551 316.288 114.258 317.056 114.258C317.6 114.258 318.032 114.407 318.352 114.706C318.683 114.994 318.848 115.399 318.848 115.922C318.848 116.221 318.784 116.615 318.656 117.106C318.485 117.735 318.245 118.482 317.936 119.346C317.755 119.837 317.653 120.173 317.632 120.354C317.611 120.482 317.6 120.567 317.6 120.61C317.6 120.802 317.691 120.898 317.872 120.898C318.064 120.898 318.261 120.813 318.464 120.642C318.741 120.343 318.981 119.847 319.184 119.154C319.216 119.026 319.243 118.951 319.264 118.93C319.296 118.898 319.371 118.882 319.488 118.882H319.584C319.765 118.882 319.867 118.893 319.888 118.914C319.931 118.957 319.952 118.999 319.952 119.042C319.952 119.085 319.936 119.154 319.904 119.25C319.541 120.466 318.96 121.202 318.16 121.458C318.075 121.479 317.947 121.49 317.776 121.49C317.371 121.49 317.051 121.373 316.816 121.138C316.581 120.903 316.464 120.583 316.464 120.178C316.464 119.954 316.549 119.618 316.72 119.17C317.2 117.826 317.483 116.866 317.568 116.29C317.589 116.194 317.6 116.013 317.6 115.746C317.6 115.554 317.595 115.431 317.584 115.378C317.467 115.026 317.259 114.85 316.96 114.85C316.875 114.85 316.805 114.855 316.752 114.866C316.037 114.962 315.413 115.469 314.88 116.386C314.763 116.589 314.677 116.775 314.624 116.946C314.571 117.117 314.405 117.773 314.128 118.914C313.787 120.269 313.6 120.989 313.568 121.074C313.419 121.362 313.184 121.506 312.864 121.506C312.544 121.506 312.373 121.351 312.352 121.042C312.352 120.989 312.56 120.119 312.976 118.434C313.403 116.706 313.616 115.826 313.616 115.794C313.648 115.645 313.664 115.506 313.664 115.378C313.664 115.026 313.547 114.85 313.312 114.85H313.264C313.104 114.882 312.949 115.047 312.8 115.346C312.683 115.602 312.539 116.066 312.368 116.738C312.357 116.759 312.347 116.781 312.336 116.802C312.315 116.855 312.235 116.882 312.096 116.882C312.053 116.882 312.021 116.882 312 116.882H311.728ZM324.313 115.778C324.313 115.639 324.387 115.533 324.537 115.458H334.729C334.889 115.533 334.969 115.639 334.969 115.778C334.969 115.895 334.894 115.997 334.745 116.082L329.657 116.098H324.569C324.398 116.045 324.313 115.938 324.313 115.778ZM324.313 118.882C324.313 118.722 324.398 118.615 324.569 118.562H334.745C334.755 118.573 334.777 118.594 334.809 118.626C334.851 118.647 334.878 118.669 334.889 118.69C334.91 118.701 334.926 118.727 334.937 118.77C334.958 118.802 334.969 118.839 334.969 118.882C334.969 119.021 334.889 119.127 334.729 119.202H324.537C324.387 119.127 324.313 119.021 324.313 118.882ZM339.902 113.922C339.614 113.922 339.384 113.831 339.214 113.65C339.054 113.469 338.974 113.234 338.974 112.946C338.974 112.338 339.214 111.831 339.694 111.426C340.174 111.01 340.728 110.765 341.358 110.69H341.598C341.971 110.69 342.206 110.695 342.302 110.706C342.654 110.759 343.011 110.871 343.374 111.042C344.078 111.394 344.52 111.895 344.702 112.546C344.734 112.653 344.75 112.797 344.75 112.978C344.75 113.607 344.552 114.173 344.158 114.674C343.774 115.165 343.288 115.517 342.702 115.73C342.648 115.751 342.648 115.767 342.702 115.778C342.723 115.789 342.776 115.805 342.862 115.826C343.512 116.007 344.062 116.349 344.51 116.85C344.958 117.341 345.182 117.901 345.182 118.53C345.182 118.967 345.08 119.389 344.878 119.794C344.622 120.338 344.2 120.791 343.614 121.154C343.038 121.506 342.392 121.682 341.678 121.682C340.974 121.682 340.35 121.533 339.806 121.234C339.262 120.935 338.894 120.535 338.702 120.034C338.595 119.81 338.542 119.549 338.542 119.25C338.542 118.951 338.638 118.711 338.83 118.53C339.032 118.338 339.272 118.242 339.55 118.242C339.848 118.242 340.094 118.338 340.286 118.53C340.478 118.722 340.574 118.962 340.574 119.25C340.574 119.495 340.504 119.709 340.366 119.89C340.227 120.071 340.04 120.189 339.806 120.242L339.694 120.274C340.27 120.754 340.931 120.994 341.678 120.994C342.264 120.994 342.707 120.711 343.006 120.146C343.187 119.794 343.278 119.255 343.278 118.53V118.21C343.278 117.197 342.936 116.519 342.254 116.178C342.094 116.114 341.768 116.077 341.278 116.066L340.606 116.05L340.558 116.018C340.536 115.986 340.526 115.901 340.526 115.762C340.526 115.634 340.542 115.554 340.574 115.522C340.606 115.49 340.632 115.474 340.654 115.474C340.952 115.474 341.262 115.447 341.582 115.394C342.051 115.33 342.408 115.069 342.654 114.61C342.899 114.141 343.022 113.581 343.022 112.93C343.022 112.237 342.835 111.773 342.462 111.538C342.238 111.389 341.987 111.314 341.71 111.314C341.176 111.314 340.707 111.458 340.302 111.746C340.259 111.767 340.211 111.805 340.158 111.858C340.104 111.901 340.062 111.943 340.03 111.986L339.982 112.05C340.014 112.061 340.051 112.071 340.094 112.082C340.307 112.103 340.483 112.205 340.622 112.386C340.771 112.567 340.846 112.775 340.846 113.01C340.846 113.266 340.755 113.485 340.574 113.666C340.403 113.837 340.179 113.922 339.902 113.922Z" fill="#25374B"/>
<path d="M328.353 136.547L365.124 154.255M328.353 136.547L291.583 154.255M328.353 136.547L307.947 225.952M328.353 136.547L282.501 194.044M328.353 136.547L374.206 194.044M328.353 136.547L348.76 225.952M365.124 154.255L374.206 194.044M365.124 154.255H291.583M365.124 154.255L282.501 194.044M365.124 154.255L307.947 225.952M365.124 154.255L348.76 225.952M374.206 194.044L348.76 225.952M374.206 194.044L291.583 154.255M374.206 194.044H282.501M374.206 194.044L307.947 225.952M348.76 225.952H307.947M348.76 225.952L291.583 154.255M348.76 225.952L282.501 194.044M307.947 225.952L282.501 194.044M307.947 225.952L291.583 154.255M282.501 194.044L291.583 154.255" stroke="#25374B" stroke-width="2" stroke-linejoin="round"/>
<circle cx="328.353" cy="136.547" r="7.5" fill="#CF3551"/>
<circle cx="308.358" cy="225.953" r="7.5" fill="#CF3551"/>
<circle cx="282.501" cy="194.521" r="7.5" fill="#CF3551"/>
<circle cx="291.543" cy="154.506" r="7.5" fill="#CF3551"/>
<circle cx="366.706" cy="154.506" r="7.5" fill="#CF3551"/>
<circle cx="374.206" cy="194.521" r="7.5" fill="#CF3551"/>
<circle cx="349.173" cy="225.953" r="7.5" fill="#CF3551"/>
<path d="M311.65 251.052C311.586 250.988 311.554 250.94 311.554 250.908C311.554 250.791 311.639 250.492 311.81 250.012C311.991 249.468 312.204 249.073 312.45 248.828C312.695 248.561 312.978 248.428 313.298 248.428C313.97 248.428 314.428 248.711 314.674 249.276C314.695 249.34 314.716 249.399 314.738 249.452V249.516L314.946 249.308C315.532 248.721 316.21 248.428 316.978 248.428C317.522 248.428 317.954 248.577 318.274 248.876C318.604 249.164 318.77 249.569 318.77 250.092C318.77 250.391 318.706 250.785 318.578 251.276C318.407 251.905 318.167 252.652 317.858 253.516C317.676 254.007 317.575 254.343 317.554 254.524C317.532 254.652 317.522 254.737 317.522 254.78C317.522 254.972 317.612 255.068 317.794 255.068C317.986 255.068 318.183 254.983 318.386 254.812C318.663 254.513 318.903 254.017 319.106 253.324C319.138 253.196 319.164 253.121 319.186 253.1C319.218 253.068 319.292 253.052 319.41 253.052H319.506C319.687 253.052 319.788 253.063 319.81 253.084C319.852 253.127 319.874 253.169 319.874 253.212C319.874 253.255 319.858 253.324 319.826 253.42C319.463 254.636 318.882 255.372 318.082 255.628C317.996 255.649 317.868 255.66 317.698 255.66C317.292 255.66 316.972 255.543 316.738 255.308C316.503 255.073 316.386 254.753 316.386 254.348C316.386 254.124 316.471 253.788 316.642 253.34C317.122 251.996 317.404 251.036 317.49 250.46C317.511 250.364 317.522 250.183 317.522 249.916C317.522 249.724 317.516 249.601 317.506 249.548C317.388 249.196 317.18 249.02 316.882 249.02C316.796 249.02 316.727 249.025 316.674 249.036C315.959 249.132 315.335 249.639 314.802 250.556C314.684 250.759 314.599 250.945 314.546 251.116C314.492 251.287 314.327 251.943 314.05 253.084C313.708 254.439 313.522 255.159 313.49 255.244C313.34 255.532 313.106 255.676 312.786 255.676C312.466 255.676 312.295 255.521 312.274 255.212C312.274 255.159 312.482 254.289 312.898 252.604C313.324 250.876 313.538 249.996 313.538 249.964C313.57 249.815 313.586 249.676 313.586 249.548C313.586 249.196 313.468 249.02 313.234 249.02H313.186C313.026 249.052 312.871 249.217 312.722 249.516C312.604 249.772 312.46 250.236 312.29 250.908C312.279 250.929 312.268 250.951 312.258 250.972C312.236 251.025 312.156 251.052 312.018 251.052C311.975 251.052 311.943 251.052 311.922 251.052H311.65ZM324.234 249.948C324.234 249.809 324.309 249.703 324.458 249.628H334.65C334.81 249.703 334.89 249.809 334.89 249.948C334.89 250.065 334.815 250.167 334.666 250.252L329.578 250.268H324.49C324.319 250.215 324.234 250.108 324.234 249.948ZM324.234 253.052C324.234 252.892 324.319 252.785 324.49 252.732H334.666C334.677 252.743 334.698 252.764 334.73 252.796C334.773 252.817 334.799 252.839 334.81 252.86C334.831 252.871 334.847 252.897 334.858 252.94C334.879 252.972 334.89 253.009 334.89 253.052C334.89 253.191 334.81 253.297 334.65 253.372H324.458C324.309 253.297 324.234 253.191 324.234 253.052ZM338.671 248.172C338.682 248.151 338.772 247.569 338.943 246.428L339.199 244.716C339.199 244.695 339.306 244.684 339.519 244.684H339.839V244.748C339.839 244.855 339.919 244.945 340.079 245.02C340.239 245.095 340.516 245.143 340.911 245.164C341.316 245.185 342.218 245.196 343.615 245.196H345.551V245.82L344.463 247.308C344.303 247.532 344.122 247.783 343.919 248.06C343.716 248.327 343.562 248.535 343.455 248.684C343.348 248.833 343.284 248.924 343.263 248.956C342.708 249.82 342.378 250.977 342.271 252.428C342.228 252.865 342.202 253.463 342.191 254.22C342.191 254.369 342.186 254.524 342.175 254.684C342.175 254.833 342.175 254.956 342.175 255.052V255.196C342.132 255.377 342.026 255.532 341.855 255.66C341.695 255.788 341.519 255.852 341.327 255.852C341.071 255.852 340.863 255.761 340.703 255.58C340.554 255.409 340.479 255.169 340.479 254.86C340.479 254.7 340.5 254.396 340.543 253.948C340.703 252.508 341.199 251.063 342.031 249.612C342.244 249.271 342.692 248.625 343.375 247.676L344.111 246.668H342.623C340.767 246.668 339.791 246.7 339.695 246.764C339.652 246.785 339.594 246.903 339.519 247.116C339.455 247.329 339.402 247.58 339.359 247.868C339.338 248.049 339.322 248.151 339.311 248.172V248.22H338.671V248.172Z" fill="#25374B"/>
<path d="M480.204 134.547L511.814 147.64M480.204 134.547L448.594 147.64M480.204 134.547V223.953M480.204 134.547L524.907 179.25M480.204 134.547L511.814 210.86M480.204 134.547L448.594 210.86M480.204 134.547L435.501 179.25M511.814 147.64L524.907 179.25M511.814 147.64V210.86M511.814 147.64H448.594M511.814 147.64L480.204 223.953M511.814 147.64L435.501 179.25M511.814 147.64L448.594 210.86M524.907 179.25L511.814 210.86M524.907 179.25L448.594 147.64M524.907 179.25H435.501M524.907 179.25L448.594 210.86M524.907 179.25L480.204 223.953M511.814 210.86L480.204 223.953M511.814 210.86H448.594M511.814 210.86L435.501 179.25M511.814 210.86L448.594 147.64M480.204 223.953L448.594 210.86M480.204 223.953L435.501 179.25M480.204 223.953L448.594 147.64M448.594 210.86L435.501 179.25M448.594 210.86V147.64M435.501 179.25L448.594 147.64" stroke="#25374B" stroke-width="2" stroke-linejoin="round"/>
<circle cx="480.204" cy="134.547" r="7.5" fill="#0694A4"/>
<circle cx="480.204" cy="223.953" r="7.5" fill="#0694A4"/>
<circle cx="435.501" cy="179.25" r="7.5" transform="rotate(-90 435.501 179.25)" fill="#0694A4"/>
<circle cx="524.907" cy="179.25" r="7.5" transform="rotate(-90 524.907 179.25)" fill="#0694A4"/>
<circle cx="448.594" cy="147.641" r="7.5" transform="rotate(-45 448.594 147.641)" fill="#0694A4"/>
<circle cx="511.814" cy="210.859" r="7.5" transform="rotate(-45 511.814 210.859)" fill="#0694A4"/>
<circle cx="448.595" cy="210.86" r="7.5" transform="rotate(-135 448.595 210.86)" fill="#0694A4"/>
<circle cx="511.813" cy="147.639" r="7.5" transform="rotate(-135 511.813 147.639)" fill="#0694A4"/>
<path d="M463.5 249.052C463.436 248.988 463.404 248.94 463.404 248.908C463.404 248.791 463.489 248.492 463.66 248.012C463.841 247.468 464.055 247.073 464.3 246.828C464.545 246.561 464.828 246.428 465.148 246.428C465.82 246.428 466.279 246.711 466.524 247.276C466.545 247.34 466.567 247.399 466.588 247.452V247.516L466.796 247.308C467.383 246.721 468.06 246.428 468.828 246.428C469.372 246.428 469.804 246.577 470.124 246.876C470.455 247.164 470.62 247.569 470.62 248.092C470.62 248.391 470.556 248.785 470.428 249.276C470.257 249.905 470.017 250.652 469.708 251.516C469.527 252.007 469.425 252.343 469.404 252.524C469.383 252.652 469.372 252.737 469.372 252.78C469.372 252.972 469.463 253.068 469.644 253.068C469.836 253.068 470.033 252.983 470.236 252.812C470.513 252.513 470.753 252.017 470.956 251.324C470.988 251.196 471.015 251.121 471.036 251.1C471.068 251.068 471.143 251.052 471.26 251.052H471.356C471.537 251.052 471.639 251.063 471.66 251.084C471.703 251.127 471.724 251.169 471.724 251.212C471.724 251.255 471.708 251.324 471.676 251.42C471.313 252.636 470.732 253.372 469.932 253.628C469.847 253.649 469.719 253.66 469.548 253.66C469.143 253.66 468.823 253.543 468.588 253.308C468.353 253.073 468.236 252.753 468.236 252.348C468.236 252.124 468.321 251.788 468.492 251.34C468.972 249.996 469.255 249.036 469.34 248.46C469.361 248.364 469.372 248.183 469.372 247.916C469.372 247.724 469.367 247.601 469.356 247.548C469.239 247.196 469.031 247.02 468.732 247.02C468.647 247.02 468.577 247.025 468.524 247.036C467.809 247.132 467.185 247.639 466.652 248.556C466.535 248.759 466.449 248.945 466.396 249.116C466.343 249.287 466.177 249.943 465.9 251.084C465.559 252.439 465.372 253.159 465.34 253.244C465.191 253.532 464.956 253.676 464.636 253.676C464.316 253.676 464.145 253.521 464.124 253.212C464.124 253.159 464.332 252.289 464.748 250.604C465.175 248.876 465.388 247.996 465.388 247.964C465.42 247.815 465.436 247.676 465.436 247.548C465.436 247.196 465.319 247.02 465.084 247.02H465.036C464.876 247.052 464.721 247.217 464.572 247.516C464.455 247.772 464.311 248.236 464.14 248.908C464.129 248.929 464.119 248.951 464.108 248.972C464.087 249.025 464.007 249.052 463.868 249.052C463.825 249.052 463.793 249.052 463.772 249.052H463.5ZM476.084 247.948C476.084 247.809 476.159 247.703 476.308 247.628H486.5C486.66 247.703 486.74 247.809 486.74 247.948C486.74 248.065 486.666 248.167 486.516 248.252L481.428 248.268H476.34C476.17 248.215 476.084 248.108 476.084 247.948ZM476.084 251.052C476.084 250.892 476.17 250.785 476.34 250.732H486.516C486.527 250.743 486.548 250.764 486.58 250.796C486.623 250.817 486.65 250.839 486.66 250.86C486.682 250.871 486.698 250.897 486.708 250.94C486.73 250.972 486.74 251.009 486.74 251.052C486.74 251.191 486.66 251.297 486.5 251.372H476.308C476.159 251.297 476.084 251.191 476.084 251.052ZM492.394 248.14C491.871 247.799 491.466 247.441 491.178 247.068C490.9 246.695 490.762 246.204 490.762 245.596C490.762 245.137 490.847 244.753 491.018 244.444C491.252 243.964 491.594 243.58 492.042 243.292C492.5 242.993 493.023 242.844 493.61 242.844C494.335 242.844 494.964 243.036 495.498 243.42C496.031 243.793 496.362 244.279 496.49 244.876C496.5 244.94 496.506 245.068 496.506 245.26C496.506 245.495 496.495 245.655 496.474 245.74C496.314 246.444 495.828 247.052 495.018 247.564L494.826 247.692C495.423 248.097 495.732 248.311 495.754 248.332C496.554 248.972 496.954 249.767 496.954 250.716C496.954 251.58 496.634 252.321 495.994 252.94C495.364 253.548 494.575 253.852 493.626 253.852C492.314 253.852 491.348 253.372 490.73 252.412C490.463 252.028 490.33 251.564 490.33 251.02C490.33 249.857 491.018 248.897 492.394 248.14ZM495.578 245.292C495.578 244.833 495.428 244.444 495.13 244.124C494.831 243.804 494.468 243.601 494.042 243.516C493.967 243.505 493.791 243.5 493.514 243.5C492.948 243.5 492.474 243.692 492.09 244.076C491.823 244.321 491.69 244.615 491.69 244.956C491.69 245.415 491.882 245.777 492.266 246.044C492.319 246.097 492.66 246.321 493.29 246.716L494.218 247.324C494.228 247.313 494.298 247.271 494.426 247.196C494.554 247.111 494.65 247.036 494.714 246.972C495.29 246.513 495.578 245.953 495.578 245.292ZM491.354 250.988C491.354 251.617 491.583 252.14 492.042 252.556C492.5 252.961 493.034 253.164 493.642 253.164C494.079 253.164 494.474 253.073 494.826 252.892C495.188 252.711 495.46 252.476 495.642 252.188C495.823 251.911 495.914 251.617 495.914 251.308C495.914 250.849 495.727 250.444 495.354 250.092C495.268 250.007 494.826 249.703 494.026 249.18C493.876 249.084 493.711 248.983 493.53 248.876C493.359 248.759 493.226 248.668 493.13 248.604L493.002 248.524L492.81 248.62C492.138 249.057 491.695 249.591 491.482 250.22C491.396 250.497 491.354 250.753 491.354 250.988Z" fill="#25374B"/>
</g>
<defs>
<clipPath id="clip0_3642_4401">
<rect width="596" height="260" fill="white"/>
</clipPath>
</defs>
</svg>
